<svg width="27" height="8" viewBox="0 0 27 8" fill="none" xmlns="http://www.w3.org/2000/svg">
<path d="M3.06 0.0799997H4.35L7.338 8H5.994L5.34 6.188H2.076L1.416 8H0.066L3.06 0.0799997ZM2.484 5.066H4.932L3.714 1.616H3.696L2.484 5.066ZM15.6597 5.3C15.7797 5.044 15.8957 4.82 16.0077 4.628C16.1277 4.436 16.2437 4.276 16.3557 4.148H9.35972V3.644H16.3557C16.2437 3.508 16.1277 3.344 16.0077 3.152C15.8957 2.96 15.7797 2.74 15.6597 2.492H16.0797C16.5837 3.076 17.1117 3.508 17.6637 3.788V4.004C17.1117 4.276 16.5837 4.708 16.0797 5.3H15.6597ZM20.2497 0.0799997H26.2197L21.9237 6.872H25.9617V8H19.6917L23.9937 1.208H20.2497V0.0799997Z" fill="#2260FF"/>
</svg>
