<svg width="12" height="12" viewBox="0 0 12 12" fill="none" xmlns="http://www.w3.org/2000/svg">
<path d="M10.9988 1.0031C10.8039 0.807424 10.4874 0.806748 10.2917 1.00159C10.096 1.19644 10.0953 1.51302 10.2902 1.7087L10.9988 1.0031ZM10.7185 3.08007L11.0728 3.43287L11.0891 3.4165L11.1039 3.39871L10.7185 3.08007ZM10.2913 1.70984C10.4862 1.90552 10.8027 1.9062 10.9984 1.71136C11.1941 1.51651 11.1948 1.19993 10.9999 1.00425L10.2913 1.70984ZM8.9288 1.28267L8.60854 0.898695L8.5908 0.913496L8.57449 0.92987L8.9288 1.28267ZM7.90442 1.60281C7.70958 1.79849 7.71026 2.11507 7.90593 2.30992C8.10161 2.50476 8.4182 2.50408 8.61304 2.3084L7.90442 1.60281ZM9.69416 3.40021C9.49932 3.59589 9.49999 3.91247 9.69567 4.10732C9.89135 4.30216 10.2079 4.30149 10.4028 4.10581L9.69416 3.40021ZM1.70983 1.7087C1.90468 1.51302 1.904 1.19644 1.70832 1.00159C1.51264 0.806748 1.19606 0.807424 1.00122 1.0031L1.70983 1.7087ZM1.28146 3.08007L0.896148 3.39871L0.910862 3.41651L0.927154 3.43287L1.28146 3.08007ZM1.00007 1.00425C0.80523 1.19993 0.805906 1.51651 1.00159 1.71136C1.19726 1.9062 1.51385 1.90552 1.70869 1.70984L1.00007 1.00425ZM3.0712 1.28267L3.42551 0.92987L3.4092 0.913496L3.39146 0.898695L3.0712 1.28267ZM3.38696 2.3084C3.5818 2.50408 3.89839 2.50476 4.09407 2.30992C4.28974 2.11507 4.29042 1.79849 4.09558 1.60281L3.38696 2.3084ZM1.59722 4.10581C1.79207 4.30149 2.10865 4.30216 2.30433 4.10732C2.50001 3.91247 2.50068 3.59589 2.30584 3.40021L1.59722 4.10581ZM8.843 11.2492C8.98063 11.4886 9.28628 11.5711 9.52568 11.4335C9.76508 11.2958 9.84758 10.9902 9.70995 10.7508L8.843 11.2492ZM2.36621 10.7508C2.22858 10.9902 2.31108 11.2958 2.55048 11.4335C2.78988 11.5711 3.09552 11.4886 3.23315 11.2492L2.36621 10.7508ZM6.07511 5.94021H5.57511V6.44021H6.07511V5.94021ZM6.57511 3.12067C6.57511 2.84453 6.35125 2.62067 6.07511 2.62067C5.79897 2.62067 5.57511 2.84453 5.57511 3.12067H6.57511ZM7.63484 6.44021C7.91098 6.44021 8.13484 6.21635 8.13484 5.94021C8.13484 5.66406 7.91098 5.44021 7.63484 5.44021V6.44021ZM10.2902 1.7087C10.2904 1.70891 10.2904 1.70898 10.2905 1.70903L10.9996 1.00392C10.9993 1.00359 10.999 1.00327 10.9988 1.0031L10.2902 1.7087ZM10.2905 1.70903C10.5668 1.98692 10.5582 2.48933 10.3332 2.76143L11.1039 3.39871C11.6239 2.76989 11.6742 1.68236 10.9996 1.00392L10.2905 1.70903ZM10.9999 1.00425C10.9998 1.00416 10.9995 1.00378 10.9991 1.00343L10.291 1.70952L10.2913 1.70984L10.9999 1.00425ZM10.9991 1.00343C10.3224 0.324781 9.23607 0.375292 8.60854 0.898695L9.24906 1.66664C9.5186 1.44183 10.0154 1.43316 10.291 1.70952L10.9991 1.00343ZM8.57449 0.92987L7.90442 1.60281L8.61304 2.3084L9.28311 1.63546L8.57449 0.92987ZM10.3642 2.72727L9.69416 3.40021L10.4028 4.10581L11.0728 3.43287L10.3642 2.72727ZM1.00122 1.0031C1.00094 1.00338 1.00066 1.00366 1.0004 1.00392L1.70951 1.70903C1.70962 1.70891 1.70973 1.7088 1.70983 1.7087L1.00122 1.0031ZM1.0004 1.00392C0.325792 1.68236 0.376135 2.76989 0.896148 3.39871L1.66678 2.76143C1.44176 2.48933 1.43318 1.98692 1.70951 1.70903L1.0004 1.00392ZM1.70869 1.70984C1.70879 1.70974 1.7089 1.70963 1.70902 1.70952L1.00089 1.00343C1.00063 1.0037 1.00035 1.00397 1.00007 1.00425L1.70869 1.70984ZM1.70902 1.70952C1.98458 1.43316 2.4814 1.44183 2.75094 1.66664L3.39146 0.898695C2.76393 0.375292 1.67758 0.324781 1.00089 1.00343L1.70902 1.70952ZM2.71689 1.63546L3.38696 2.3084L4.09558 1.60281L3.42551 0.92987L2.71689 1.63546ZM0.927154 3.43287L1.59722 4.10581L2.30584 3.40021L1.63577 2.72727L0.927154 3.43287ZM7.82526 9.47887L8.843 11.2492L9.70995 10.7508L8.69221 8.98047L7.82526 9.47887ZM3.38395 8.98047L2.36621 10.7508L3.23315 11.2492L4.2509 9.47887L3.38395 8.98047ZM6.57511 5.94021V3.12067H5.57511V5.94021H6.57511ZM6.07511 6.44021H7.63484V5.44021H6.07511V6.44021ZM9.94235 5.70525C9.94235 7.81016 8.24383 9.51287 6.1531 9.51287V10.5129C8.80014 10.5129 10.9424 8.35841 10.9424 5.70525H9.94235ZM6.1531 9.51287C4.06236 9.51287 2.36384 7.81016 2.36384 5.70525H1.36384C1.36384 8.35841 3.50605 10.5129 6.1531 10.5129V9.51287ZM2.36384 5.70525C2.36384 3.60033 4.06236 1.89762 6.1531 1.89762V0.897619C3.50605 0.897619 1.36384 3.05208 1.36384 5.70525H2.36384ZM6.1531 1.89762C8.24383 1.89762 9.94235 3.60033 9.94235 5.70525H10.9424C10.9424 3.05208 8.80014 0.897619 6.1531 0.897619V1.89762Z" fill="#2260FF"/>
</svg>
