<svg width="13" height="15" viewBox="0 0 13 15" fill="none" xmlns="http://www.w3.org/2000/svg">
<path d="M7.62431 2.28315C10.7136 2.48135 12.6877 5.89526 11.4008 8.81411M8.0462 4.06505C9.49944 4.23987 10.5094 5.98652 9.97834 7.40647M5.78798 3.66775L4.583 1.58387C4.44734 1.34926 4.14483 1.26953 3.91138 1.40817C0.396699 3.49551 0.0626414 4.49966 1.14863 6.34216L4.52022 12.173C5.57533 14.0333 6.61333 14.2465 10.1811 12.251C10.4181 12.1185 10.5002 11.817 10.3645 11.5824L9.15957 9.49855C8.98392 9.19478 8.74709 9.2098 8.46858 9.28935C8.19006 9.3689 7.14676 10.0513 6.76647 10.2706C6.38618 10.4898 3.61759 5.52643 3.92182 5.35105C4.22605 5.17567 5.41568 4.5709 5.62393 4.36984C5.83219 4.16879 5.96363 3.97151 5.78798 3.66775Z" stroke="#2260FF" stroke-linecap="round"/>
</svg>
