<svg width="13" height="10" viewBox="0 0 13 10" fill="none" xmlns="http://www.w3.org/2000/svg">
<path d="M5.82039 3.00209H12.3673M5.82039 3.00209C5.82039 3.90604 5.0876 4.63883 4.18365 4.63883C3.27971 4.63883 2.54691 3.90604 2.54691 3.00209M5.82039 3.00209C5.82039 2.09815 5.0876 1.36536 4.18365 1.36536C3.27971 1.36536 2.54691 2.09815 2.54691 3.00209M0.910175 3.00209H2.54691M9.91223 7.09394H12.3673M9.91223 7.09394C9.91223 7.99788 9.17944 8.73068 8.27549 8.73068C7.37155 8.73068 6.63876 7.99788 6.63876 7.09394M9.91223 7.09394C9.91223 6.18999 9.17944 5.4572 8.27549 5.4572C7.37155 5.4572 6.63876 6.18999 6.63876 7.09394M0.910175 7.09394H6.63876" stroke="#2260FF" stroke-linecap="round" stroke-linejoin="round"/>
</svg>
