<svg width="22" height="19" viewBox="0 0 22 19" fill="none" xmlns="http://www.w3.org/2000/svg">
<path d="M7.8254 10.2948C7.27312 10.2948 6.8254 9.8471 6.8254 9.29482C6.8254 8.74253 7.27312 8.29482 7.8254 8.29482V10.2948ZM20.5238 9.29482L21.1498 8.51495C21.3862 8.70475 21.5238 8.99159 21.5238 9.29482C21.5238 9.59804 21.3862 9.88489 21.1498 10.0747L20.5238 9.29482ZM16.0815 7.01163C15.6508 6.66593 15.5819 6.03653 15.9276 5.60581C16.2733 5.1751 16.9027 5.10618 17.3334 5.45188L16.0815 7.01163ZM17.3334 13.1378C16.9027 13.4834 16.2733 13.4145 15.9276 12.9838C15.5819 12.5531 15.6508 11.9237 16.0815 11.578L17.3334 13.1378ZM13.0112 17.5714V16.5714V17.5714ZM13.8793 16.7079L14.8793 16.7079V16.7079L13.8793 16.7079ZM1.4762 16.7079L2.4762 16.7079V16.7079L1.4762 16.7079ZM2.34431 1.46985V0.469847V1.46985ZM1.4762 2.33334L0.476196 2.33334V2.33334H1.4762ZM13.0112 1.46985V2.46985V1.46985ZM13.8793 2.33334H14.8793H13.8793ZM12.8793 13.0657C12.8793 12.5134 13.327 12.0657 13.8793 12.0657C14.4316 12.0657 14.8793 12.5134 14.8793 13.0657L12.8793 13.0657ZM14.8793 5.84565C14.8793 6.39794 14.4316 6.84565 13.8793 6.84565C13.327 6.84565 12.8793 6.39794 12.8793 5.84565H14.8793ZM7.8254 8.29482H20.5238V10.2948H7.8254V8.29482ZM19.8979 10.0747L16.0815 7.01163L17.3334 5.45188L21.1498 8.51495L19.8979 10.0747ZM21.1498 10.0747L17.3334 13.1378L16.0815 11.578L19.8979 8.51495L21.1498 10.0747ZM13.0112 16.5714C12.9434 16.5714 12.8793 16.6275 12.8793 16.7079L14.8793 16.7079C14.8793 17.7421 14.0379 18.5714 13.0112 18.5714V16.5714ZM2.34432 16.5714L13.0112 16.5714V18.5714L2.34432 18.5714L2.34432 16.5714ZM2.4762 16.7079C2.4762 16.6275 2.41211 16.5714 2.34432 16.5714L2.34432 18.5714C1.31763 18.5714 0.476198 17.7421 0.476198 16.7079L2.4762 16.7079ZM2.34431 2.46985C2.41211 2.46985 2.4762 2.41376 2.4762 2.33334H0.476196C0.476196 1.29914 1.31762 0.469847 2.34431 0.469847L2.34431 2.46985ZM13.0112 2.46985H2.34431V0.469847H13.0112V2.46985ZM12.8793 2.33334C12.8793 2.41376 12.9434 2.46985 13.0112 2.46985V0.469847C14.0379 0.469847 14.8793 1.29914 14.8793 2.33334H12.8793ZM2.4762 2.33334L2.4762 16.7079L0.476198 16.7079L0.476196 2.33334L2.4762 2.33334ZM12.8793 16.7079L12.8793 13.0657L14.8793 13.0657L14.8793 16.7079L12.8793 16.7079ZM12.8793 5.84565V2.33334H14.8793V5.84565H12.8793Z" fill="#2260FF"/>
</svg>
