<svg width="14" height="20" viewBox="0 0 14 20" fill="none" xmlns="http://www.w3.org/2000/svg">
<path d="M7.80139 17.2719L13.2861 14.1783M4.79622 5.52912L10.7399 15.6144M7.26948 3.73329C7.35964 3.88867 7.30107 4.09025 7.13866 4.18354L2.21303 7.013C2.05062 7.10629 1.84587 7.05596 1.75571 6.90059C-0.277032 3.39757 1.04557 2.05704 2.22709 1.37833C3.40861 0.699626 5.23335 0.22443 7.26948 3.73329ZM7.43273 4.01462L13.2021 13.9571C13.2724 14.0781 13.3065 14.2168 13.299 14.3564C13.2039 16.1185 12.9608 17.6625 12.7996 18.5394C12.723 18.9558 12.3015 19.2001 11.8999 19.0606C11.0519 18.7659 9.57783 18.2092 7.98783 17.4074C7.86238 17.3442 7.75858 17.2454 7.68826 17.1242L1.91896 7.18192L7.43273 4.01462Z" stroke="#CAD6FF" stroke-linecap="round"/>
</svg>
