<svg width="15" height="23" viewBox="0 0 15 23" fill="none" xmlns="http://www.w3.org/2000/svg">
<path d="M3.48936 21.25C3.07515 21.25 2.73936 21.5858 2.73936 22C2.73936 22.4142 3.07515 22.75 3.48936 22.75L3.48936 21.25ZM11.7872 22.75C12.2014 22.75 12.5372 22.4142 12.5372 22C12.5372 21.5858 12.2014 21.25 11.7872 21.25L11.7872 22.75ZM4.04255 4.40336H3.29255V4.40336L4.04255 4.40336ZM10.9574 4.40336H10.2074V4.40336L10.9574 4.40336ZM10.9574 12.1818H11.7074V12.1818L10.9574 12.1818ZM4.04256 12.1818H4.79256V12.1818L4.04256 12.1818ZM7.5 15.5852L7.5 16.3352H7.5V15.5852ZM7.49999 1V0.25V1ZM1 10.8182V10.0682C0.585787 10.0682 0.250001 10.404 0.250001 10.8182L1 10.8182ZM1 11.7153H0.25H1ZM14 11.7153L13.25 11.7153V11.7153H14ZM14 10.8182L14.75 10.8182C14.75 10.6193 14.671 10.4285 14.5303 10.2879C14.3897 10.1472 14.1989 10.0682 14 10.0682V10.8182ZM6.8883 22C6.8883 22.4142 7.22408 22.75 7.6383 22.75C8.05251 22.75 8.3883 22.4142 8.3883 22H6.8883ZM8.3883 18.4545C8.3883 18.0403 8.05251 17.7045 7.6383 17.7045C7.22408 17.7045 6.8883 18.0403 6.8883 18.4545H8.3883ZM3.48936 22.75L11.7872 22.75L11.7872 21.25L3.48936 21.25L3.48936 22.75ZM7.5 14.8352C5.99354 14.8352 4.79256 13.6361 4.79256 12.1818H3.29256C3.29256 14.4868 5.18749 16.3352 7.5 16.3352L7.5 14.8352ZM10.2074 12.1818C10.2074 13.6361 9.00647 14.8352 7.5 14.8352V16.3352C9.81252 16.3352 11.7074 14.4868 11.7074 12.1818H10.2074ZM7.49999 1.75C9.00646 1.75 10.2074 2.94905 10.2074 4.40336L11.7074 4.40336C11.7074 2.09842 9.81251 0.25 7.49999 0.25V1.75ZM4.79255 4.40336C4.79255 2.94905 5.99353 1.75 7.49999 1.75V0.25C5.18748 0.25 3.29255 2.09842 3.29255 4.40336H4.79255ZM4.79256 12.1818L4.79255 4.40336L3.29255 4.40336L3.29256 12.1818L4.79256 12.1818ZM10.2074 4.40336L10.2074 12.1818L11.7074 12.1818L11.7074 4.40336L10.2074 4.40336ZM0.250001 10.8182L0.25 11.7153L1.75 11.7153L1.75 10.8182L0.250001 10.8182ZM7.5 19.2045C11.5294 19.2045 14.75 15.8257 14.75 11.7153H13.25C13.25 15.0489 10.6503 17.7045 7.5 17.7045V19.2045ZM0.25 11.7153C0.25 15.8257 3.47061 19.2045 7.5 19.2045V17.7045C4.34968 17.7045 1.75 15.0489 1.75 11.7153H0.25ZM14.75 11.7153L14.75 10.8182L13.25 10.8182L13.25 11.7153L14.75 11.7153ZM10.9574 11.5682H14V10.0682H10.9574V11.5682ZM1 11.5682H4.25V10.0682H1V11.5682ZM8.3883 22V18.4545H6.8883V22H8.3883Z" fill="#2260FF"/>
</svg>
