<svg width="27" height="27" viewBox="0 0 27 27" fill="none" xmlns="http://www.w3.org/2000/svg">
<path d="M11.03 1.57143V0.571426C10.4777 0.571426 10.03 1.01914 10.03 1.57143L11.03 1.57143ZM15.9224 1.57143H16.9224C16.9224 1.01914 16.4747 0.571426 15.9224 0.571426V1.57143ZM15.9224 25.381V26.381C16.4747 26.381 16.9224 25.9332 16.9224 25.381H15.9224ZM11.03 25.381H10.03C10.03 25.9332 10.4777 26.381 11.03 26.381V25.381ZM25.381 11.03H26.381C26.381 10.4777 25.9332 10.03 25.381 10.03L25.381 11.03ZM25.381 15.9224V16.9224C25.6462 16.9224 25.9005 16.817 26.0881 16.6295C26.2756 16.4419 26.381 16.1876 26.381 15.9224H25.381ZM1.57143 15.9224H0.571426C0.571426 16.4747 1.01914 16.9224 1.57143 16.9224L1.57143 15.9224ZM1.57143 11.03L1.57143 10.03C1.30621 10.03 1.05186 10.1354 0.86432 10.3229C0.676783 10.5104 0.571426 10.7648 0.571426 11.03H1.57143ZM20.1644 3.32854L20.8715 2.62143C20.4826 2.23249 19.8525 2.23068 19.4614 2.61738L20.1644 3.32854ZM23.6238 6.78796L24.335 7.491C24.7217 7.09983 24.7199 6.4698 24.3309 6.08086L23.6238 6.78796ZM6.78796 23.6238L6.08086 24.3309C6.46996 24.7201 7.10033 24.7217 7.49143 24.3346L6.78796 23.6238ZM3.32854 20.1644L2.61781 19.461C2.23071 19.8521 2.23232 20.4824 2.62143 20.8715L3.32854 20.1644ZM23.6238 20.1644L24.3309 20.8715C24.7163 20.4861 24.7221 19.8632 24.344 19.4706L23.6238 20.1644ZM20.1644 23.6238L19.4515 24.3251C19.6385 24.5152 19.8936 24.6227 20.1603 24.6238C20.4269 24.6249 20.683 24.5195 20.8715 24.3309L20.1644 23.6238ZM3.32854 6.78796L2.62143 6.08086C2.4339 6.26839 2.32854 6.52275 2.32854 6.78796C2.32854 7.05318 2.4339 7.30753 2.62143 7.49507L3.32854 6.78796ZM6.78797 3.32854L7.49507 2.62143C7.10455 2.2309 6.47139 2.2309 6.08086 2.62143L6.78797 3.32854ZM21.3668 15.9224V14.9224H20.6489L20.4193 15.6026L21.3668 15.9224ZM20.7942 17.227L19.9173 16.7463L19.5638 17.3912L20.074 17.9208L20.7942 17.227ZM17.227 20.6374L17.9399 19.9362L17.4341 19.4218L16.7864 19.7397L17.227 20.6374ZM15.9224 21.1431L15.6429 20.183L14.9224 20.3927V21.1431H15.9224ZM11.03 21.0406H12.03V20.3227L11.3498 20.0932L11.03 21.0406ZM9.88845 20.5551L10.3491 19.6675L9.70264 19.332L9.18499 19.8443L9.88845 20.5551ZM6.39732 17.0639L7.10805 17.7674L7.62041 17.2497L7.28491 16.6033L6.39732 17.0639ZM5.91174 15.9224L6.85922 15.6026L6.62963 14.9224L5.91174 14.9224L5.91174 15.9224ZM5.80927 11.03V12.03H6.55969L6.76942 11.3095L5.80927 11.03ZM6.29891 9.75834L7.19861 10.1948L7.50929 9.5545L7.00602 9.05123L6.29891 9.75834ZM9.65604 6.19661L8.94894 6.90372L9.48458 7.43936L10.1453 7.06878L9.65604 6.19661ZM11.03 5.58558L11.3498 6.53306L12.03 6.30347V5.58558H11.03ZM15.9224 5.48311H14.9224V6.23353L15.6429 6.44326L15.9224 5.48311ZM17.3901 6.07116L16.9294 6.95875L17.5755 7.29404L18.0931 6.78232L17.3901 6.07116ZM20.8812 9.56229L20.1701 8.85926L19.6583 9.37689L19.9936 10.0229L20.8812 9.56229ZM21.4693 11.03L20.5091 11.3095L20.7188 12.03L21.4693 12.03L21.4693 11.03ZM11.03 2.57143H15.9224V0.571426H11.03V2.57143ZM15.9224 24.381H11.03V26.381H15.9224V24.381ZM24.381 11.03V15.9224H26.381V11.03H24.381ZM2.57143 15.9224V11.03H0.571426V15.9224H2.57143ZM19.4573 4.03564L22.9167 7.49507L24.3309 6.08086L20.8715 2.62143L19.4573 4.03564ZM7.49507 22.9167L4.03564 19.4573L2.62143 20.8715L6.08086 24.3309L7.49507 22.9167ZM22.9167 19.4573L19.4573 22.9167L20.8715 24.3309L24.3309 20.8715L22.9167 19.4573ZM4.03565 7.49507L7.49507 4.03564L6.08086 2.62143L2.62143 6.08086L4.03565 7.49507ZM20.4193 15.6026C20.285 16.0005 20.1165 16.3829 19.9173 16.7463L21.6711 17.7077C21.9261 17.2424 22.142 16.7524 22.3143 16.2422L20.4193 15.6026ZM16.7864 19.7397C16.4215 19.9187 16.0393 20.0676 15.6429 20.183L16.2019 22.1033C16.7102 21.9553 17.2001 21.7645 17.6676 21.5351L16.7864 19.7397ZM11.3498 20.0932C11.0037 19.9763 10.6694 19.8337 10.3491 19.6675L9.42781 21.4426C9.83798 21.6555 10.2664 21.8383 10.7102 21.9881L11.3498 20.0932ZM7.28491 16.6033C7.11868 16.283 6.97604 15.9487 6.85922 15.6026L4.96426 16.2422C5.11404 16.686 5.29686 17.1144 5.50974 17.5246L7.28491 16.6033ZM6.76942 11.3095C6.88177 10.9235 7.02581 10.551 7.19861 10.1948L5.39922 9.32183C5.17785 9.77808 4.99318 10.2556 4.84912 10.7505L6.76942 11.3095ZM10.1453 7.06878C10.5267 6.8548 10.9296 6.6749 11.3498 6.53306L10.7102 4.6381C10.1714 4.81997 9.65517 5.05053 9.16683 5.32445L10.1453 7.06878ZM15.6429 6.44326C16.0914 6.57382 16.5218 6.74719 16.9294 6.95875L17.8507 5.18358C17.3287 4.91263 16.777 4.69038 16.2019 4.52296L15.6429 6.44326ZM19.9936 10.0229C20.2052 10.4306 20.3786 10.861 20.5091 11.3095L22.4294 10.7505C22.262 10.1754 22.0397 9.62372 21.7688 9.10165L19.9936 10.0229ZM12.03 5.58558V1.57143H10.03V5.58558H12.03ZM14.9224 1.57143V5.48311H16.9224V1.57143H14.9224ZM6.08086 4.03564L8.94894 6.90372L10.3631 5.4895L7.49507 2.62143L6.08086 4.03564ZM7.00602 9.05123L4.03565 6.08086L2.62143 7.49507L5.59181 10.4654L7.00602 9.05123ZM18.0931 6.78232L20.8674 4.0397L19.4614 2.61738L16.6871 5.36L18.0931 6.78232ZM22.9127 6.08493L20.1701 8.85926L21.5924 10.2653L24.335 7.491L22.9127 6.08493ZM21.4693 12.03H25.381L25.381 10.03H21.4693L21.4693 12.03ZM25.381 14.9224L21.3668 14.9224V16.9224L25.381 16.9224L25.381 14.9224ZM20.074 17.9208L22.9036 20.8582L24.344 19.4706L21.5144 16.5332L20.074 17.9208ZM20.8774 22.9226L17.9399 19.9362L16.5141 21.3386L19.4515 24.3251L20.8774 22.9226ZM14.9224 21.1431V25.381H16.9224V21.1431H14.9224ZM12.03 25.381V21.0406H10.03V25.381H12.03ZM9.18499 19.8443L6.0845 22.9131L7.49143 24.3346L10.5919 21.2658L9.18499 19.8443ZM4.03927 20.8679L7.10805 17.7674L5.68659 16.3605L2.61781 19.461L4.03927 20.8679ZM5.91174 14.9224L1.57143 14.9224L1.57143 16.9224L5.91174 16.9224L5.91174 14.9224ZM1.57143 12.03H5.80927V10.03H1.57143L1.57143 12.03ZM15.8746 12.9531C16.1431 14.2949 15.2812 15.5479 13.9599 15.776L14.3 17.7468C16.744 17.325 18.3224 14.9923 17.8357 12.5607L15.8746 12.9531ZM13.9599 15.776C12.6175 16.0076 11.2904 15.0989 11.018 13.7373L9.05683 14.1297C9.53947 16.5415 11.877 18.165 14.3 17.7468L13.9599 15.776ZM11.018 13.7373C10.7494 12.3955 11.6114 11.1425 12.9327 10.9144L12.5926 8.94357C10.1486 9.36536 8.57023 11.6981 9.05683 14.1297L11.018 13.7373ZM12.9327 10.9144C14.2751 10.6828 15.6021 11.5915 15.8746 12.9531L17.8357 12.5607C17.3531 10.1489 15.0156 8.5254 12.5926 8.94357L12.9327 10.9144Z" fill="#2260FF"/>
</svg>
