<svg width="16" height="11" viewBox="0 0 16 11" fill="none" xmlns="http://www.w3.org/2000/svg">
<path d="M1.79855 0.580017C1.40172 0.580017 1.08002 0.860792 1.08002 1.20714V8.91286C1.08002 9.25921 1.40172 9.53998 1.79855 9.53998L9.74349 9.54002C10.1403 9.54002 10.462 9.25924 10.462 8.91289V1.20718C10.462 0.860825 10.1403 0.580051 9.74349 0.580051L1.79855 0.580017Z" stroke="#2260FF"/>
<path d="M10.462 2.5348V7.33761C10.462 7.46844 10.7441 7.58943 11.2029 7.65542L13.2444 8.24086C13.8834 8.42412 14.52 7.94439 14.52 7.2796V2.6305C14.52 1.9728 13.896 1.49419 13.2608 1.66468L11.2029 2.217C10.7441 2.28298 10.462 2.40398 10.462 2.5348Z" stroke="#2260FF"/>
</svg>
