<svg width="25" height="22" viewBox="0 0 25 22" fill="none" xmlns="http://www.w3.org/2000/svg">
<path d="M4.27906 4.88567C3.00885 4.88666 1.52604 4.39189 1.52381 3.15208C1.52169 1.97426 2.89686 1.47726 4.27292 1.47619L16.8044 1.47619C18.0808 1.47619 18.5595 2.1626 18.5595 2.87297V4.88567M22.4755 9.84492H17.9011C15.9997 9.84492 14.4583 11.302 14.4583 13.0994C14.4583 14.8968 15.9997 16.3539 17.9011 16.3539H22.4755M17.7433 13.2544H17.9011M1.5238 3.33591V18.9885C1.5238 19.8364 2.22073 20.5238 3.08042 20.5238H21.8719C22.7316 20.5238 23.4286 19.8364 23.4286 18.9885V6.42095C23.4286 5.57304 22.7316 4.88567 21.8719 4.88567H4.25677" stroke="#2260FF" stroke-width="2" stroke-linecap="round"/>
</svg>
